<svg width="23" height="24" viewBox="0 0 23 24" fill="none" xmlns="http://www.w3.org/2000/svg">
<path opacity="0.2" fill-rule="evenodd" clip-rule="evenodd" d="M11.2961 24C17.5348 24 20.7096 13.8 15.0615 9.6C9.41345 5.4 18.79 0 12.5513 0C6.31258 0 0 7.23532 0 13.2C0 19.1647 5.05745 24 11.2961 24Z" fill="#F8B64C"/>
<path fill-rule="evenodd" clip-rule="evenodd" d="M6.33337 14C6.33337 17.6819 9.31814 20.6667 13 20.6667C16.6819 20.6667 19.6667 17.6819 19.6667 14C19.6667 10.3181 16.6819 7.33334 13 7.33334C9.31814 7.33334 6.33337 10.3181 6.33337 14ZM13.0352 9.92594H12.9726C12.7791 9.92594 12.6182 10.0749 12.6034 10.2679L12.2828 14.4356C12.2692 14.6127 12.3832 14.7745 12.5546 14.8213L15.9761 15.7544C16.0003 15.761 16.0253 15.7644 16.0505 15.7644C16.2067 15.7644 16.3334 15.6377 16.3334 15.4815V15.3261C16.3334 15.1931 16.2622 15.0704 16.1468 15.0045L13.7408 13.6296L13.4038 10.2595C13.3848 10.0701 13.2255 9.92594 13.0352 9.92594Z" fill="#EEA734"/>
</svg>
