<svg width="18" height="18" viewBox="0 0 18 18" fill="none" xmlns="http://www.w3.org/2000/svg">
<path fill-rule="evenodd" clip-rule="evenodd" d="M17.3333 8.99996C17.3333 13.6023 13.6023 17.3333 8.99996 17.3333C4.39759 17.3333 0.666626 13.6023 0.666626 8.99996C0.666626 4.39759 4.39759 0.666626 8.99996 0.666626C13.6023 0.666626 17.3333 4.39759 17.3333 8.99996ZM9.05097 2.74996C8.67785 2.74996 8.37537 3.05243 8.37537 3.42555V4.32209C8.32464 4.33314 8.27397 4.34495 8.22337 4.35753C7.80404 4.46169 7.42752 4.62627 7.09377 4.85128C6.76002 5.07628 6.49046 5.36377 6.28508 5.71378C6.0797 6.06378 5.97701 6.48461 5.97701 6.97628C5.97701 7.37628 6.04333 7.71586 6.17597 7.99502C6.30862 8.27419 6.48404 8.51169 6.70226 8.70753C6.92048 8.90336 7.16865 9.06378 7.44677 9.18878C7.72489 9.31378 8.00943 9.42211 8.30038 9.51378C8.5999 9.60544 8.86732 9.69086 9.10265 9.77003C9.33799 9.84919 9.53481 9.93669 9.69312 10.0325C9.85144 10.1284 9.97338 10.2346 10.059 10.3513C10.1445 10.4679 10.1873 10.6096 10.1873 10.7763C10.1873 10.9513 10.1531 11.1013 10.0846 11.2263C10.0162 11.3513 9.92418 11.4513 9.80865 11.5263C9.69312 11.6013 9.55834 11.6554 9.40431 11.6888C9.25027 11.7221 9.09196 11.7388 8.92936 11.7388C8.56994 11.7388 8.20839 11.6492 7.84469 11.47C7.481 11.2909 7.1879 11.0679 6.96541 10.8013L5.52774 12.2263C5.92995 12.6346 6.43484 12.9492 7.04243 13.17C7.47586 13.3276 7.92017 13.4289 8.37537 13.4741V14.5744C8.37537 14.9475 8.67785 15.25 9.05097 15.25C9.42409 15.25 9.72656 14.9475 9.72656 14.5744V13.4366C9.89496 13.4088 10.0614 13.372 10.2258 13.3263C10.6452 13.2096 11.0174 13.0304 11.3426 12.7888C11.6678 12.5471 11.9266 12.2409 12.1192 11.87C12.3117 11.4992 12.408 11.0596 12.408 10.5513C12.408 10.1096 12.3181 9.74086 12.1384 9.44503C11.9587 9.14919 11.732 8.90128 11.4581 8.70128C11.1843 8.50127 10.8805 8.34086 10.5467 8.22003C10.213 8.09919 9.89209 7.98878 9.58401 7.88878C9.37008 7.82211 9.17753 7.75753 9.00638 7.69503C8.83523 7.63253 8.68761 7.56378 8.56353 7.48878C8.43944 7.41377 8.34531 7.32628 8.28113 7.22628C8.21695 7.12628 8.18486 7.00128 8.18486 6.85128C8.18486 6.67627 8.2255 6.53253 8.3068 6.42002C8.3881 6.30752 8.48865 6.21586 8.60845 6.14503C8.72826 6.07419 8.86304 6.02628 9.0128 6.00128C9.16256 5.97628 9.31017 5.96378 9.45565 5.96378C9.73805 5.96378 10.0311 6.03252 10.3349 6.17002C10.6387 6.30753 10.8848 6.49294 11.073 6.72628L12.4722 5.28878C12.07 4.93044 11.6015 4.65961 11.0666 4.47627C10.6122 4.32052 10.1655 4.23092 9.72656 4.2075V3.42555C9.72656 3.05243 9.42409 2.74996 9.05097 2.74996Z" fill="#868686"/>
</svg>
