<svg width="16" height="16" viewBox="0 0 16 16" fill="none" xmlns="http://www.w3.org/2000/svg">
<path fill-rule="evenodd" clip-rule="evenodd" d="M14.6667 7.99998C14.6667 11.6819 11.6819 14.6666 8.00004 14.6666C4.31814 14.6666 1.33337 11.6819 1.33337 7.99998C1.33337 4.31808 4.31814 1.33331 8.00004 1.33331C11.6819 1.33331 14.6667 4.31808 14.6667 7.99998ZM8.04085 2.99998C7.74235 2.99998 7.50037 3.24196 7.50037 3.54046V4.25768C7.45979 4.26653 7.41925 4.27598 7.37877 4.28603C7.04331 4.36937 6.74209 4.50103 6.47509 4.68103C6.2081 4.86103 5.99245 5.09103 5.82814 5.37103C5.66384 5.65103 5.58169 5.9877 5.58169 6.38103C5.58169 6.70103 5.63474 6.9727 5.74086 7.19603C5.84697 7.41937 5.98731 7.60936 6.16189 7.76603C6.33646 7.9227 6.535 8.05103 6.75749 8.15103C6.97999 8.25103 7.20762 8.3377 7.44038 8.41103C7.68 8.48437 7.89393 8.5527 8.0822 8.61603C8.27047 8.67937 8.42792 8.74937 8.55458 8.82603C8.68123 8.9027 8.77878 8.9877 8.84724 9.08103C8.9157 9.17437 8.94993 9.2877 8.94993 9.42103C8.94993 9.56103 8.92255 9.68103 8.86778 9.78103C8.81301 9.88103 8.73942 9.96103 8.647 10.021C8.55458 10.081 8.44675 10.1244 8.32352 10.151C8.20029 10.1777 8.07364 10.191 7.94357 10.191C7.65603 10.191 7.36679 10.1194 7.07583 9.97603C6.78487 9.8327 6.5504 9.65437 6.3724 9.44103L5.22227 10.581C5.54403 10.9077 5.94795 11.1594 6.43402 11.336C6.78076 11.4621 7.13621 11.5431 7.50037 11.5793V12.4595C7.50037 12.758 7.74235 13 8.04085 13C8.33935 13 8.58133 12.758 8.58133 12.4595V11.5493C8.71604 11.5271 8.84918 11.4976 8.98074 11.461C9.3162 11.3677 9.614 11.2244 9.87415 11.031C10.1343 10.8377 10.3414 10.5927 10.4954 10.296C10.6495 9.99936 10.7265 9.6477 10.7265 9.24103C10.7265 8.8877 10.6546 8.5927 10.5108 8.35603C10.3671 8.11936 10.1856 7.92103 9.96657 7.76103C9.7475 7.60103 9.50447 7.4727 9.23747 7.37603C8.97047 7.27937 8.71375 7.19103 8.46729 7.11103C8.29614 7.0577 8.1421 7.00603 8.00518 6.95603C7.86826 6.90603 7.75017 6.85103 7.6509 6.79103C7.55163 6.73103 7.47633 6.66103 7.42498 6.58103C7.37364 6.50103 7.34796 6.40103 7.34796 6.28103C7.34796 6.14103 7.38048 6.02603 7.44552 5.93603C7.51056 5.84603 7.591 5.7727 7.68684 5.71603C7.78269 5.65937 7.89051 5.62103 8.01032 5.60103C8.13012 5.58103 8.24822 5.57103 8.3646 5.57103C8.59052 5.57103 8.82499 5.62603 9.06803 5.73603C9.31106 5.84603 9.50788 5.99437 9.6585 6.18103L10.7778 5.03103C10.4561 4.74436 10.0812 4.5277 9.65336 4.38103C9.28984 4.25642 8.9325 4.18475 8.58133 4.16601V3.54046C8.58133 3.24196 8.33935 2.99998 8.04085 2.99998Z" fill="white"/>
</svg>
