<svg width="23" height="24" viewBox="0 0 23 24" fill="none" xmlns="http://www.w3.org/2000/svg">
<path opacity="0.2" fill-rule="evenodd" clip-rule="evenodd" d="M11.2961 24C17.5348 24 20.7096 13.8 15.0615 9.6C9.41345 5.4 18.79 0 12.5513 0C6.31258 0 0 7.23532 0 13.2C0 19.1647 5.05745 24 11.2961 24Z" fill="#F8B64C"/>
<path fill-rule="evenodd" clip-rule="evenodd" d="M21.3333 14C21.3333 18.6024 17.6023 22.3333 13 22.3333C8.39759 22.3333 4.66663 18.6024 4.66663 14C4.66663 9.39762 8.39759 5.66666 13 5.66666C17.6023 5.66666 21.3333 9.39762 21.3333 14ZM13.051 7.74999C12.6778 7.74999 12.3754 8.05246 12.3754 8.42559V9.32212C12.3246 9.33317 12.274 9.34498 12.2234 9.35756C11.804 9.46172 11.4275 9.6263 11.0938 9.85131C10.76 10.0763 10.4905 10.3638 10.2851 10.7138C10.0797 11.0638 9.97701 11.4846 9.97701 11.9763C9.97701 12.3763 10.0433 12.7159 10.176 12.9951C10.3086 13.2742 10.484 13.5117 10.7023 13.7076C10.9205 13.9034 11.1686 14.0638 11.4468 14.1888C11.7249 14.3138 12.0094 14.4221 12.3004 14.5138C12.5999 14.6055 12.8673 14.6909 13.1026 14.7701C13.338 14.8492 13.5348 14.9367 13.6931 15.0326C13.8514 15.1284 13.9734 15.2346 14.059 15.3513C14.1445 15.468 14.1873 15.6096 14.1873 15.7763C14.1873 15.9513 14.1531 16.1013 14.0846 16.2263C14.0162 16.3513 13.9242 16.4513 13.8086 16.5263C13.6931 16.6013 13.5583 16.6555 13.4043 16.6888C13.2503 16.7221 13.092 16.7388 12.9294 16.7388C12.5699 16.7388 12.2084 16.6492 11.8447 16.4701C11.481 16.2909 11.1879 16.068 10.9654 15.8013L9.52774 17.2263C9.92994 17.6346 10.4348 17.9492 11.0424 18.1701C11.4759 18.3276 11.9202 18.4289 12.3754 18.4741V19.5744C12.3754 19.9475 12.6778 20.25 13.051 20.25C13.4241 20.25 13.7266 19.9475 13.7266 19.5744V18.4367C13.895 18.4088 14.0614 18.3721 14.2258 18.3263C14.6451 18.2096 15.0174 18.0305 15.3426 17.7888C15.6678 17.5471 15.9266 17.2409 16.1192 16.8701C16.3117 16.4992 16.408 16.0596 16.408 15.5513C16.408 15.1096 16.3181 14.7409 16.1384 14.4451C15.9587 14.1492 15.732 13.9013 15.4581 13.7013C15.1843 13.5013 14.8805 13.3409 14.5467 13.2201C14.213 13.0992 13.8921 12.9888 13.584 12.8888C13.3701 12.8221 13.1775 12.7576 13.0064 12.6951C12.8352 12.6326 12.6876 12.5638 12.5635 12.4888C12.4394 12.4138 12.3453 12.3263 12.2811 12.2263C12.2169 12.1263 12.1849 12.0013 12.1849 11.8513C12.1849 11.6763 12.2255 11.5326 12.3068 11.4201C12.3881 11.3076 12.4886 11.2159 12.6085 11.1451C12.7283 11.0742 12.863 11.0263 13.0128 11.0013C13.1626 10.9763 13.3102 10.9638 13.4556 10.9638C13.738 10.9638 14.0311 11.0326 14.3349 11.1701C14.6387 11.3076 14.8848 11.493 15.073 11.7263L16.4722 10.2888C16.07 9.93047 15.6015 9.65964 15.0666 9.47631C14.6122 9.32055 14.1655 9.23095 13.7266 9.20753V8.42559C13.7266 8.05246 13.4241 7.74999 13.051 7.74999Z" fill="#EEA734"/>
</svg>
