<svg width="12" height="12" viewBox="0 0 12 12" fill="none" xmlns="http://www.w3.org/2000/svg">
<path fill-rule="evenodd" clip-rule="evenodd" d="M6.00003 10.1666L3.16365 11.6578C2.82418 11.8363 2.4043 11.7058 2.22583 11.3663C2.15476 11.2311 2.13023 11.0763 2.15605 10.9257L2.69775 7.7674L0.403074 5.53064C0.128432 5.26293 0.122813 4.82327 0.390522 4.54863C0.497125 4.43927 0.636807 4.36809 0.787944 4.34613L3.95911 3.88534L5.3773 1.01177C5.54703 0.667848 5.96344 0.52664 6.30737 0.696378C6.44432 0.763968 6.55517 0.874821 6.62276 1.01177L8.04095 3.88534L11.2121 4.34613C11.5917 4.40128 11.8546 4.75367 11.7995 5.13322C11.7775 5.28436 11.7063 5.42404 11.597 5.53064L9.30231 7.7674L9.84401 10.9257C9.90884 11.3038 9.65496 11.6628 9.27695 11.7276C9.12643 11.7534 8.97159 11.7289 8.83641 11.6578L6.00003 10.1666Z" fill="#EEA734"/>
</svg>
